<?xml version="1.0" encoding="utf-8"?>
<!-- Generator: Adobe Illustrator 22.1.0, SVG Export Plug-In . SVG Version: 6.00 Build 0)  -->
<svg version="1.1" id="Capa_1" xmlns="http://www.w3.org/2000/svg" xmlns:xlink="http://www.w3.org/1999/xlink" x="0px" y="0px"
	 viewBox="0 0 100 100" style="enable-background:new 0 0 100 100;" xml:space="preserve">
<style type="text/css">
	.st0{fill:#FFFFFF;}
</style>
<g>
	<g>
		<g>
			<polygon class="st0" points="66.5,30.2 50.9,3.2 35.3,30.2 34.2,29.5 50.9,0.6 67.6,29.5 			"/>
		</g>
		<g>
			<polygon class="st0" points="66.5,58.1 50.9,31.1 35.3,58.1 34.2,57.5 50.9,28.6 67.6,57.5 			"/>
		</g>
	</g>
	<g>
		<g>
			<path class="st0" d="M41,92.4c0,3.6-2.8,6.9-8.9,6.9c-3,0-6.1-0.8-8.2-2.3l1.9-3.8c1.6,1.2,3.9,1.9,6.1,1.9c2.5,0,4-1,4-2.8
				c0-1.6-1.2-2.6-4-2.6h-2.3v-3.3l4.4-5H25v-4H40v3.2l-4.9,5.5C39.1,86.9,41,89.3,41,92.4z"/>
			<path class="st0" d="M59.3,92.3c0,3.8-2.8,7.1-8.9,7.1c-3,0-6.1-0.8-8.2-2.3l2-3.8c1.6,1.2,3.9,1.9,6.1,1.9c2.5,0,4-1,4-2.8
				c0-1.7-1.1-2.8-5-2.8h-5.5l1.1-12.1H58v4h-9l-0.3,4.1h1.8C56.8,85.6,59.3,88.5,59.3,92.3z"/>
			<path class="st0" d="M72.5,99L68.9,94L65.1,99h-5.2l6.4-8.3l-6.1-8.2h5.4l3.5,4.8l3.6-4.8h5.1l-6.1,8.1l6.4,8.5H72.5z"/>
		</g>
	</g>
</g>
</svg>
