<?xml version="1.0" encoding="utf-8"?>
<!-- Generator: Adobe Illustrator 22.1.0, SVG Export Plug-In . SVG Version: 6.00 Build 0)  -->
<svg version="1.1" id="Capa_1" xmlns="http://www.w3.org/2000/svg" xmlns:xlink="http://www.w3.org/1999/xlink" x="0px" y="0px"
	 viewBox="0 0 100 100" style="enable-background:new 0 0 100 100;" xml:space="preserve">
<style type="text/css">
	.st0{fill:#FFFFFF;}
</style>
<g>
	<g>
		<g>
			<polygon class="st0" points="51.1,98.4 34.4,69.5 35.5,68.8 51.1,95.8 66.6,68.8 67.8,69.5 			"/>
		</g>
		<g>
			<polygon class="st0" points="51.1,70.4 34.4,41.5 35.5,40.9 51.1,67.9 66.6,40.9 67.8,41.5 			"/>
		</g>
	</g>
	<g>
		<path class="st0" d="M41.1,16.5c0,3.6-2.8,6.9-8.9,6.9c-3,0-6.1-0.8-8.2-2.3l1.9-3.8c1.6,1.2,3.9,1.9,6.1,1.9c2.5,0,4-1,4-2.8
			c0-1.6-1.2-2.6-4-2.6h-2.3v-3.3l4.4-5H25v-4h15.1v3.2l-4.9,5.5C39.1,11,41.1,13.4,41.1,16.5z"/>
		<path class="st0" d="M59.3,16.4c0,3.8-2.8,7.1-8.9,7.1c-3,0-6.1-0.8-8.2-2.3l2-3.8c1.6,1.2,3.9,1.9,6.1,1.9c2.5,0,4-1,4-2.8
			c0-1.7-1.1-2.8-5-2.8h-5.5l1.1-12.1H58v4h-9l-0.3,4.1h1.8C56.8,9.7,59.3,12.5,59.3,16.4z"/>
		<path class="st0" d="M72.6,23.1L68.9,18l-3.8,5.1H60l6.4-8.3l-6.1-8.2h5.4l3.5,4.8l3.6-4.8h5.1l-6.1,8.1l6.4,8.5H72.6z"/>
	</g>
</g>
</svg>
