<?xml version="1.0" encoding="utf-8"?>
<!-- Generator: Adobe Illustrator 22.1.0, SVG Export Plug-In . SVG Version: 6.00 Build 0)  -->
<svg version="1.1" id="Capa_1" xmlns="http://www.w3.org/2000/svg" xmlns:xlink="http://www.w3.org/1999/xlink" x="0px" y="0px"
	 viewBox="0 0 100 100" style="enable-background:new 0 0 100 100;" xml:space="preserve">
<style type="text/css">
	.st0{fill:#FFFFFF;}
</style>
<g>
	<path class="st0" d="M48.2,2.4C36.9,2.8,26.1,7.3,17.7,15l8.6,8.6c6-5.4,13.7-8.6,21.8-9V2.4z"/>
	<path class="st0" d="M23.7,73.7c-5.5-6-8.7-13.8-9.1-21.9H2.4C2.8,63.2,7.3,74,15.1,82.4L23.7,73.7z"/>
	<path class="st0" d="M84.9,17.6l-8.6,8.6c5.5,6,8.7,13.8,9.1,21.9h12.2C97.2,36.8,92.7,26,84.9,17.6z"/>
	<path class="st0" d="M48.2,97.6V85.4c-8.1-0.4-15.9-3.6-21.9-9.1l-8.6,8.6C26,92.7,36.8,97.2,48.2,97.6z"/>
	<path class="st0" d="M82.4,15.1C74,7.3,63.2,2.8,51.8,2.4v12.2c8.1,0.4,15.9,3.6,21.9,9.1L82.4,15.1z"/>
	<path class="st0" d="M23.8,26.1l-8.6-8.6C7.3,25.9,2.8,36.8,2.4,48.2h12.2C15,40,18.3,32.2,23.8,26.1z"/>
	<path class="st0" d="M50,81.8c17.5,0,31.8-14.3,31.8-31.8S67.5,18.2,50,18.2S18.2,32.5,18.2,50S32.4,81.8,50,81.8z M34.2,49
		l14.3-21.4c0.6-0.8,1.7-1.1,2.5-0.5c0.2,0.1,0.4,0.3,0.5,0.5L65.8,49c0.4,0.6,0.4,1.4,0,2L51.5,72.4c-0.6,0.8-1.7,1.1-2.5,0.5
		c-0.2-0.1-0.4-0.3-0.5-0.5L34.2,51C33.8,50.4,33.8,49.6,34.2,49z"/>
	<path class="st0" d="M85.4,51.8c-0.4,8.1-3.6,15.8-9,21.8l8.6,8.6c7.7-8.3,12.2-19.1,12.6-30.5H85.4z"/>
	<path class="st0" d="M51.8,97.6c11.4-0.4,22.3-5,30.7-12.8l-8.6-8.6c-6.1,5.5-13.9,8.8-22,9.2V97.6z"/>
	<polygon class="st0" points="62.1,50 50,31.9 37.9,50 50,68.1 	"/>
</g>
</svg>
