<?xml version="1.0" encoding="utf-8"?>
<!-- Generator: Adobe Illustrator 22.1.0, SVG Export Plug-In . SVG Version: 6.00 Build 0)  -->
<svg version="1.1" id="Capa_1" xmlns="http://www.w3.org/2000/svg" xmlns:xlink="http://www.w3.org/1999/xlink" x="0px" y="0px"
	 viewBox="0 0 100 100" style="enable-background:new 0 0 100 100;" xml:space="preserve">
<style type="text/css">
	.st0{fill:#FFFFFF;}
</style>
<g>
	<path class="st0" d="M81.1,22c1,0.8,2.3,1.3,3.6,1.3c3.3,0,5.9-2.6,5.9-5.9s-2.6-5.9-5.9-5.9s-5.9,2.6-5.9,5.9
		c0,0.7,0.1,1.3,0.3,1.9l-7.9,6c-1-0.7-2.2-1.1-3.5-1.1c-3.3,0-5.9,2.6-5.9,5.9c0,0.8,0.2,1.4,0.3,2L54.4,38
		c-0.9-0.8-2.2-1.2-3.6-1.2c-1.1,0-2.1,0.3-3,0.8l-8.6-9.2c0.4-0.8,0.6-1.7,0.6-2.6c0-3.3-2.6-5.9-5.9-5.9c-2.7,0-4.9,1.8-5.7,4.2
		h-5.6c-0.8-2.5-3-4.2-5.7-4.2c-3.3,0-5.9,2.6-5.9,5.9s2.6,5.9,5.9,5.9c2.7,0,4.9-1.8,5.7-4.2h5.6c0.8,2.5,3,4.2,5.7,4.2
		c1.1,0,2.1-0.3,3-0.8l8.6,9.3C45.2,41,45,41.9,45,42.8c0,3.3,2.6,5.9,5.9,5.9s5.9-2.6,5.9-5.9c0-0.7-0.1-1.4-0.3-1.9l7.8-6
		c1,0.8,2.2,1.2,3.6,1.2c3.3,0,5.9-2.6,5.9-5.9c0-0.8-0.2-1.4-0.4-2.1L81.1,22z M17,28.4c-1.4,0-2.5-1.1-2.5-2.5
		c0-1.4,1.1-2.5,2.5-2.5c1.4,0,2.5,1.1,2.5,2.5C19.6,27.3,18.5,28.4,17,28.4z M84.8,14.8c1.4,0,2.5,1.1,2.5,2.5s-1.1,2.5-2.5,2.5
		c-1.4,0-2.5-1.1-2.5-2.5C82.2,15.9,83.3,14.8,84.8,14.8z M34,28.4c-1.4,0-2.5-1.1-2.5-2.5c0-1.4,1.1-2.5,2.5-2.5s2.5,1.1,2.5,2.5
		C36.5,27.3,35.4,28.4,34,28.4z M50.9,45.3c-1.4,0-2.5-1.1-2.5-2.5s1.1-2.5,2.5-2.5s2.5,1.1,2.5,2.5S52.3,45.3,50.9,45.3z
		 M67.8,32.6c-1.4,0-2.5-1.1-2.5-2.5c0-1.4,1.1-2.5,2.5-2.5c1.4,0,2.5,1.1,2.5,2.5C70.4,31.5,69.3,32.6,67.8,32.6z"/>
	<path class="st0" d="M11.1,91H23V36.8H11.1V91z M14.5,57.2h5.1v30.5h-5.1V57.2z"/>
	<path class="st0" d="M28,91h11.9V36.8H28V91z M31.4,57.2h5.1v30.5h-5.1V57.2z"/>
	<path class="st0" d="M45,91h11.9V53.8H45V91z M48.4,74.1h5.1v13.5h-5.1V74.1z"/>
	<path class="st0" d="M61.9,91h11.9v-50H61.9V91z M65.3,61.4h5.1v26.2h-5.1V61.4z"/>
	<path class="st0" d="M78.8,91h11.9V28.4H78.8V91z M82.2,48.7h5.1v38.9h-5.1V48.7z"/>
</g>
</svg>
