<?xml version="1.0" encoding="utf-8"?>
<!-- Generator: Adobe Illustrator 22.1.0, SVG Export Plug-In . SVG Version: 6.00 Build 0)  -->
<svg version="1.1" id="Capa_1" xmlns="http://www.w3.org/2000/svg" xmlns:xlink="http://www.w3.org/1999/xlink" x="0px" y="0px"
	 viewBox="0 0 100 100" style="enable-background:new 0 0 100 100;" xml:space="preserve">
<style type="text/css">
	.st0{fill:#FFFFFF;}
</style>
<path class="st0" d="M29.3,25c-5.9,0-10.8,5.9-10.8,13.5S23.4,52,29.3,52c2.2,0,4.2-1.1,6.4-2.7c-0.5-1.6-1-3.2-1-5.4
	c0-4.9,1.5-8.7,3.7-12.5C36.8,27.6,33.1,25,29.3,25L29.3,25z M72.5,25c-3.8,0-7.5,2.6-9.1,6.4c2.2,3.8,3.7,7.6,3.7,12.5
	c0,2.2-0.5,3.8-1,5.4c2.2,1.6,4.2,2.7,6.4,2.7c5.9,0,10.8-5.9,10.8-13.5S78.4,25,72.5,25L72.5,25z M50.9,30.4c-6,0-10.8,6-10.8,13.5
	s4.8,13.5,10.8,13.5s10.8-6,10.8-13.5S56.8,30.4,50.9,30.4z M18,52c-5.4,0.5-10.3,4.9-10.3,10.8v10.8h16.2v-5.4
	c0-4.3,1.7-8.1,4.4-10.8C24.5,56.8,20.7,55.2,18,52L18,52z M83.8,52c-2.7,3.2-6.5,4.9-10.3,5.4c2.7,2.7,4.4,6.5,4.4,10.8v5.4H94
	V62.8C94,56.8,89.2,52.5,83.8,52L83.8,52z M39.6,57.4c-5.4,0.5-10.3,4.9-10.3,10.8v10.8h43.1V68.1c0-5.9-4.9-10.2-10.3-10.8
	c-3.2,3.2-7,5.4-11.3,5.4S42.8,60.6,39.6,57.4z"/>
</svg>
