<?xml version="1.0" encoding="utf-8"?>
<!-- Generator: Adobe Illustrator 22.1.0, SVG Export Plug-In . SVG Version: 6.00 Build 0)  -->
<svg version="1.1" id="Capa_1" xmlns="http://www.w3.org/2000/svg" xmlns:xlink="http://www.w3.org/1999/xlink" x="0px" y="0px"
	 viewBox="0 0 100 100" style="enable-background:new 0 0 100 100;" xml:space="preserve">
<style type="text/css">
	.st0{fill:#FFFFFF;}
</style>
<g transform="translate(0,-952.36218)">
	<path class="st0" d="M20.1,977.2c-4.6,0-8.4,3.8-8.4,8.4v37.5c0,4.6,3.8,8.4,8.4,8.4h61.8c4.6,0,8.4-3.8,8.4-8.4v-37.5
		c0-4.6-3.8-8.4-8.4-8.4H20.1z M20.7,982.8h60.6l-28.6,25.5c-1.1,1-2.3,1-3.4,0L20.7,982.8z M17.3,987.3l19.3,17.2L17.3,1023V987.3z
		 M84.7,987.3v35.7l-19.2-18.5L84.7,987.3z M61.3,1008.2l18.4,17.7H22.3l18.4-17.7l4.8,4.3c3.1,2.7,7.8,2.7,10.9,0L61.3,1008.2z"/>
</g>
</svg>
