<?xml version="1.0" encoding="utf-8"?>
<!-- Generator: Adobe Illustrator 22.1.0, SVG Export Plug-In . SVG Version: 6.00 Build 0)  -->
<svg version="1.1" id="Capa_1" xmlns="http://www.w3.org/2000/svg" xmlns:xlink="http://www.w3.org/1999/xlink" x="0px" y="0px"
	 viewBox="0 0 100 100" style="enable-background:new 0 0 100 100;" xml:space="preserve">
<style type="text/css">
	.st0{fill:#FFFFFF;}
</style>
<g>
	<path class="st0" d="M18.6,26.9c4.1,0,7.5-3.3,7.5-7.5S22.7,12,18.6,12s-7.5,3.3-7.5,7.5S14.4,26.9,18.6,26.9z M18.6,14.5
		c2.7,0,5,2.2,5,5s-2.2,5-5,5s-5-2.2-5-5S15.8,14.5,18.6,14.5z"/>
	<path class="st0" d="M58.4,19.5c0-4.1-3.3-7.5-7.5-7.5s-7.5,3.3-7.5,7.5s3.3,7.5,7.5,7.5C55,26.9,58.4,23.6,58.4,19.5z M45.9,19.5
		c0-2.7,2.2-5,5-5s5,2.2,5,5s-2.2,5-5,5S45.9,22.2,45.9,19.5z"/>
	<path class="st0" d="M83.2,12c-4.1,0-7.5,3.3-7.5,7.5s3.3,7.5,7.5,7.5s7.5-3.3,7.5-7.5S87.3,12,83.2,12z M83.2,24.4
		c-2.7,0-5-2.2-5-5s2.2-5,5-5s5,2.2,5,5S86,24.4,83.2,24.4z"/>
	<path class="st0" d="M83.2,39.4c-3.7,0-6.8,2.7-7.4,6.2H62c-0.6-5.6-5.4-9.9-11.1-9.9S40.4,40,39.8,45.6H25.9
		c-0.6-3.5-3.7-6.2-7.4-6.2c-4.1,0-7.5,3.3-7.5,7.5s3.3,7.5,7.5,7.5c3.7,0,6.8-2.7,7.4-6.2h13.9c0.5,4.2,3.3,7.9,7.4,9.3v8.8
		l-4.6,4.6c-0.2,0.2-0.4,0.5-0.4,0.9v8.7c0,0.3,0.1,0.6,0.4,0.9l4.6,4.6v4.5c0,0.7,0.6,1.2,1.2,1.2h14.9c3.4,0,6.2-2.8,6.2-6.2V63
		c0-2.1-1.7-3.7-3.7-3.7c-1,0-1.8,0.4-2.5,1c-0.7-0.6-1.5-1-2.5-1c-1,0-1.8,0.4-2.5,1c-0.7-0.6-1.5-1-2.5-1c-0.4,0-0.9,0.1-1.2,0.2
		v-2.1c4-1.4,6.9-5.1,7.4-9.3h13.9c0.6,3.5,3.7,6.2,7.4,6.2c4.1,0,7.5-3.3,7.5-7.5S87.3,39.4,83.2,39.4z M18.6,51.8
		c-2.7,0-5-2.2-5-5c0-2.7,2.2-5,5-5s5,2.2,5,5C23.5,49.6,21.3,51.8,18.6,51.8z M55.9,61.8c0.7,0,1.2,0.6,1.2,1.2v6.2h2.5V63
		c0-0.7,0.6-1.2,1.2-1.2c0.7,0,1.2,0.6,1.2,1.2v6.2h1.2l1.2,0l0-6.2c0-0.7,0.6-1.2,1.2-1.2c0.7,0,1.2,0.6,1.2,1.2v22.4
		c0,2.1-1.7,3.7-3.7,3.7H49.6v-3.7c0-0.3-0.1-0.6-0.4-0.9l-4.6-4.6v-7.7l2.5-2.5v5.7h2.5v-19v-7.1c0-0.7,0.6-1.2,1.2-1.2
		c0.7,0,1.2,0.6,1.2,1.2v7.1V63v6.2h2.5V63C54.6,62.3,55.2,61.8,55.9,61.8z M54.6,54.7v-5.4c0-2.1-1.7-3.7-3.7-3.7
		c-2.1,0-3.7,1.7-3.7,3.7v5.4c-3-1.4-5-4.5-5-7.9c0-4.8,3.9-8.7,8.7-8.7s8.7,3.9,8.7,8.7C59.6,50.2,57.6,53.3,54.6,54.7z M83.2,51.8
		c-2.7,0-5-2.2-5-5c0-2.7,2.2-5,5-5s5,2.2,5,5C88.2,49.6,86,51.8,83.2,51.8z"/>
	<path class="st0" d="M18.6,81.7c4.1,0,7.5-3.3,7.5-7.5c0-4.1-3.3-7.5-7.5-7.5s-7.5,3.3-7.5,7.5C11.1,78.3,14.4,81.7,18.6,81.7z
		 M18.6,69.2c2.7,0,5,2.2,5,5c0,2.7-2.2,5-5,5s-5-2.2-5-5C13.6,71.5,15.8,69.2,18.6,69.2z"/>
	<path class="st0" d="M83.2,66.7c-4.1,0-7.5,3.3-7.5,7.5c0,4.1,3.3,7.5,7.5,7.5s7.5-3.3,7.5-7.5C90.7,70.1,87.3,66.7,83.2,66.7z
		 M83.2,79.2c-2.7,0-5-2.2-5-5c0-2.7,2.2-5,5-5s5,2.2,5,5C88.2,76.9,86,79.2,83.2,79.2z"/>
	<rect x="28.5" y="17" class="st0" width="2.5" height="2.5"/>
	<rect x="33.5" y="17" class="st0" width="2.5" height="2.5"/>
	<rect x="38.5" y="17" class="st0" width="2.5" height="2.5"/>
	<rect x="60.8" y="17" class="st0" width="2.5" height="2.5"/>
	<rect x="65.8" y="17" class="st0" width="2.5" height="2.5"/>
	<rect x="70.8" y="17" class="st0" width="2.5" height="2.5"/>
	<rect x="28.5" y="73" class="st0" width="2.5" height="2.5"/>
	<rect x="33.5" y="73" class="st0" width="2.5" height="2.5"/>
	<rect x="38.5" y="73" class="st0" width="2.5" height="2.5"/>
	<rect x="70.8" y="73" class="st0" width="2.5" height="2.5"/>
</g>
</svg>
