<?xml version="1.0" encoding="utf-8"?>
<!-- Generator: Adobe Illustrator 22.1.0, SVG Export Plug-In . SVG Version: 6.00 Build 0)  -->
<svg version="1.1" id="Capa_1" xmlns="http://www.w3.org/2000/svg" xmlns:xlink="http://www.w3.org/1999/xlink" x="0px" y="0px"
	 viewBox="0 0 100 100" style="enable-background:new 0 0 100 100;" xml:space="preserve">
<style type="text/css">
	.st0{fill:#FFFFFF;}
</style>
<path class="st0" d="M77.2,59.1c-2.5-2-4.6-3.5-6.4-4.3c-2.6-1.2-5.2,0-6.5,0.9c-2.1,1.5-4,3.4-5.8,5.3l-1,1L57.3,62
	c-0.3,0.1-0.4,0.2-0.5,0.3c-0.5,0.3-1,0.3-1.5,0c-0.1-0.1-0.3-0.1-0.6-0.3l-0.2-0.1c-1.2-0.8-2.9-2.2-4.9-4.1l-6.3-6.3
	c-2.2-2.2-3.6-3.7-4.3-4.8c-0.8-1.2-0.8-2.1,0-2.9l0.1-0.1c0.6-0.6,1.2-1.2,1.8-1.8c1.7-1.6,3.3-3.1,4.5-4.8
	c0.9-1.3,2.2-3.8,0.9-6.3c-1-1.9-2.7-4.1-4.4-6.3c-2-2.4-4-4.7-5.5-6.2c-1.6-1.5-3.7-1.9-6.4-1.2c-1.9,0.6-3.7,1.6-5.2,3.1
	c-7.2,7.1-10.1,13-9.3,19.1c0.8,6.4,5,12.6,14.8,22.3l8.9,8.7C49.2,80.1,55.6,84.2,62,85c6.2,0.8,12.2-2.1,19.4-9.1
	c1.8-1.7,2.7-3.7,3.1-5.1c0.4-1.2,1-4.1-1.2-6.2C81.8,62.9,79.4,60.9,77.2,59.1z M80.5,68.7c-0.2,0.9-1.4,2.8-2.1,3.8l-0.1,0.1
	c-5.7,5.6-9.8,7.9-14.1,7.9c-0.5,0-1,0-1.5-0.1c-5-0.6-11.6-5-20.1-13.3l-8.9-8.7c-8.5-8.3-12.9-14.7-13.5-19.7
	c-0.6-4.8,1.6-9.1,8-15.3c0.9-1,3.1-2.1,4.1-2.3l0.6-0.1l0.4,0.4c1.3,1.3,3.4,3.6,5.2,5.8c1.7,2.1,3.5,4.6,3.9,5.5l0.3,0.6l-0.3,0.5
	c-0.6,0.9-2.3,2.8-3.4,3.8c-0.4,0.4-0.9,0.8-1.3,1.3c-0.6,0.5-1.2,1.1-1.7,1.6c-0.8,0.9-1.8,2.1-2.1,3.7c-0.2,1.5,0.2,3,1.4,4.7
	c3.1,4,10.8,12,17,16.7c1.7,1.1,3.4,1.5,4.9,1.3c1.7-0.2,2.9-1.2,3.8-2c0.6-0.5,1.1-1.1,1.6-1.6c0.4-0.4,0.8-0.9,1.3-1.3
	c1-1.1,3.2-2.8,3.9-3.3l0.6-0.4l0.6,0.3c0.9,0.4,3.4,2.2,5.6,3.9c2.3,1.8,4.6,3.8,5.9,5l0.5,0.5L80.5,68.7z"/>
</svg>
