<?xml version="1.0" encoding="utf-8"?>
<!-- Generator: Adobe Illustrator 22.1.0, SVG Export Plug-In . SVG Version: 6.00 Build 0)  -->
<svg version="1.1" id="Capa_1" xmlns="http://www.w3.org/2000/svg" xmlns:xlink="http://www.w3.org/1999/xlink" x="0px" y="0px"
	 viewBox="0 0 100 100" style="enable-background:new 0 0 100 100;" xml:space="preserve">
<style type="text/css">
	.st0{fill:#FFFFFF;}
</style>
<g>
	<g>
		<path class="st0" d="M50,96.7C24.3,96.7,3.3,75.7,3.3,50S24.3,3.3,50,3.3S96.7,24.3,96.7,50S75.7,96.7,50,96.7z M50,7.2
			C26.4,7.2,7.2,26.4,7.2,50c0,23.6,19.2,42.8,42.8,42.8c23.6,0,42.8-19.2,42.8-42.8C92.8,26.4,73.6,7.2,50,7.2z"/>
	</g>
	<g>
		<path class="st0" d="M83.5,79c-6.6-8.3-10.1-18.4-10.1-29c0-10.7,3.5-20.7,10.1-29l3,2.4C80.5,31,77.2,40.2,77.2,50
			c0,9.8,3.2,19,9.3,26.6L83.5,79z"/>
	</g>
	<g>
		<path class="st0" d="M16.5,79l-3-2.4c6.1-7.6,9.3-16.8,9.3-26.6c0-9.8-3.2-19-9.3-26.6l3-2.4c6.6,8.3,10.1,18.4,10.1,29
			C26.7,60.7,23.1,70.7,16.5,79z"/>
	</g>
	<g>
		<rect x="48.1" y="5.3" class="st0" width="3.9" height="89.5"/>
	</g>
	<g>
		<rect x="5.3" y="48.1" class="st0" width="89.5" height="3.9"/>
	</g>
</g>
</svg>
