<svg version="1.1" id="Layer_1" xmlns="http://www.w3.org/2000/svg" xmlns:xlink="http://www.w3.org/1999/xlink" x="0px" y="0px"
	 viewBox="0 0 200 134.5" style="enable-background:new 0 0 200 134.5;" xml:space="preserve">
<style type="text/css">
	.st0{fill:#0E4828;}
	.st1{fill:#E98866;}
</style>
<g>
	<path class="st0" d="M194,122.6h-45.4c0-0.1,0-0.2,0-0.3V43.6c0-0.1,0-4.2,0-4.3l-6.9,3.4v79.6c0,0.1,0,0.2,0,0.3h-24.8
		c0-0.1,0-0.2,0-0.3V54.7l-6.9,3.4v64.2c0,0.1,0,0.2,0,0.3H85.5V69.5l-1.2,0.6c-1.8,0.9-4,0.8-5.7-0.3v52.8H51.5V58.8l-6.9,3.9v59.9
		H11.9V83.1l1-2.2l0.4-4.3l0.2-5.8l-1.6-1.5V5.9C11.9,2.7,9.3,0,6,0S0,2.7,0,5.9v122.6c0,3.3,2.7,5.9,6,5.9c0,0,0,0,0,0H194
		c3.3,0,6-2.7,6-5.9C200,125.3,197.3,122.6,194,122.6L194,122.6z"/>
	<path class="arrow" d="M182.6,19.3c-0.9-1.7-2.5-2.8-4.4-3.1l-29.7-4.1c-2.2-0.3-4.5,0.7-5.8,2.5c-1.3,1.9-1.4,4.3-0.3,6.3l5.4,9.5
		L87.7,59.9L88,36.3c0-2.1-1.1-4.1-3-5.2c-1.8-1.1-4.1-1.1-6,0L11.9,69.4v13.7l32.7-18.7l6.9-3.9l24.4-14l-0.2,22.9
		c0,2.1,1,4,2.8,5.1c0,0,0.1,0,0.1,0c1.7,1.1,3.9,1.2,5.7,0.3l1.2-0.6l24.7-12.1l6.9-3.4l24.7-12.1l6.9-3.4l5-2.4l6,10.6
		c1.1,1.9,3.2,3.1,5.4,3c2.2-0.1,4.2-1.4,5.2-3.4l12.5-26.4C183.5,23,183.5,21,182.6,19.3L182.6,19.3z M164.4,35.6L164.4,35.6
		L164.4,35.6L164.4,35.6L164.4,35.6z"/>
</g>
</svg>
