<?xml version="1.0" encoding="utf-8"?>
<!-- Generator: Adobe Illustrator 23.0.0, SVG Export Plug-In . SVG Version: 6.00 Build 0)  -->
<svg version="1.1" id="Layer_1" xmlns="http://www.w3.org/2000/svg" xmlns:xlink="http://www.w3.org/1999/xlink" x="0px" y="0px"
	 viewBox="0 0 76.53 76.54" style="enable-background:new 0 0 76.53 76.54;" xml:space="preserve">
<style type="text/css">
	.st0{fill-rule:evenodd;clip-rule:evenodd;fill:#1D1B54;}
</style>
<path class="st0" d="M0,38.27c0,21.08,17.19,38.27,38.27,38.27c21.08,0,38.27-17.19,38.27-38.27l0,0C76.53,17.19,59.34,0,38.27,0
	l0,0C17.19,0,0,17.19,0,38.27L0,38.27z M13.46,48.36c0.71,0,1.23,0.2,1.57,0.59c0.29,0.34,0.44,0.82,0.44,1.43v1.23
	c0,0.6-0.23,1.1-0.69,1.52l0.95,3.69h-1.37l-0.78-3.19c-0.04,0-0.07,0-0.12,0h-0.74v3.19h-1.27v-8.46H13.46L13.46,48.36z
	 M20.74,67.97c8.18,4.83,17.57,5.87,26.13,3.67c8.56-2.21,16.27-7.66,21.1-15.84c4.83-8.18,5.87-17.57,3.67-26.13
	c-2.21-8.56-7.66-16.27-15.84-21.1C47.61,3.74,38.22,2.69,29.66,4.9c-8.56,2.21-16.27,7.66-21.1,15.84
	C3.74,28.92,2.69,38.32,4.9,46.87C7.1,55.43,12.56,63.15,20.74,67.97L20.74,67.97z M54.71,37.3c0-1.69,0-3.05,0.03-4.07
	c0.03-1.19,0.37-1.76,1.29-1.93c0.41-0.07,0.64-0.1,0.91-0.1c0.24,0,0.44-0.07,0.44-0.27c0-0.27-0.24-0.34-0.68-0.34
	c-1.12,0-2.91,0.1-3.97,0.1c-1.02,0-3.15-0.1-4.92-0.1c-0.47,0-0.71,0.07-0.71,0.34c0,0.2,0.2,0.27,0.51,0.27
	c0.47,0,1.05,0.03,1.32,0.1c1.12,0.24,1.42,0.78,1.46,1.93c0.03,1.02,0.03,2.3,0.03,4v3.19c0,0.58-0.14,1.02-0.64,1.25
	c-0.61,0.28-1.44,0.35-2.19,0.37c0.13,0.27,0.2,0.58,0.2,0.92c0,0.28-0.04,0.54-0.12,0.77c2.29-0.13,4.81-0.55,6.59-1.48
	c0.41-0.24,0.44-0.3,0.44-1.22V37.3L54.71,37.3z M22.57,33.47c0,3.12,0,5.8-0.17,7.22c-0.14,0.98-0.3,1.73-0.98,1.86
	c-0.31,0.07-0.71,0.14-1.22,0.14c-0.41,0-0.54,0.1-0.54,0.27c0,0.24,0.24,0.34,0.68,0.34c1.36,0,3.49-0.1,4.14-0.1
	c0.51,0,3.02,0.1,4.98,0.1c0.44,0,0.68-0.1,0.68-0.34c0-0.17-0.14-0.27-0.41-0.27c-0.41,0-1.15-0.07-1.66-0.14
	c-1.02-0.14-1.22-0.88-1.32-1.86c-0.17-1.42-0.17-4.1-0.17-7.25v-0.47c0-0.2,0.1-0.27,0.27-0.27l2.95,0.07
	c0.24,0,0.44,0.03,0.61,0.24c0.44,0.51,2,2.81,3.36,4.68c1.9,2.61,3.19,4.2,4.64,4.98c0.88,0.47,1.73,0.64,3.63,0.64h3.22
	c0.41,0,0.64-0.07,0.64-0.34c0-0.17-0.14-0.27-0.41-0.27c-0.27,0-0.58-0.03-0.95-0.1c-0.51-0.1-1.9-0.34-3.8-2.3
	c-2-2.1-4.34-5.12-7.36-8.91c3.42-2.78,4.47-5.08,4.47-7.59c0-2.27-1.36-4-2.3-4.64c-1.83-1.25-4.1-1.46-6.24-1.46
	c-1.05,0-3.63,0.1-4.78,0.1c-0.71,0-2.85-0.1-4.64-0.1c-0.51,0-0.75,0.07-0.75,0.31s0.2,0.31,0.58,0.31c0.47,0,1.05,0.03,1.32,0.1
	c1.12,0.24,1.39,0.78,1.46,1.93c0.07,1.08,0.07,2.03,0.07,7.19V33.47L22.57,33.47z M26.57,19.88c0-0.27,0.07-0.41,0.31-0.47
	c0.34-0.1,0.95-0.14,1.8-0.14c2,0,5.19,1.39,5.19,6.2c0,2.78-0.98,4.34-2,5.08c-0.61,0.44-1.05,0.58-2.41,0.58
	c-0.85,0-1.86-0.1-2.58-0.34c-0.24-0.1-0.31-0.24-0.31-0.61V19.88L26.57,19.88z M39,20.43c2.13-1.43,4.29-1.53,5.95-1.53
	c3.83,0,6.54,1.56,7.56,2.64c0.88,0.95,1.05,2.03,1.15,2.81c0.03,0.27,0.1,0.44,0.34,0.44c0.27,0,0.37-0.17,0.37-0.71
	c0-4.24,0.24-5.19,0.24-5.56c0-0.24-0.07-0.37-0.47-0.41c-0.78-0.03-1.97-0.24-2.68-0.37c-0.68-0.14-3.66-0.54-6-0.54
	c-2.41,0-4.94,0.17-7.64,1.42C38.29,19.16,38.69,19.77,39,20.43L39,20.43z M47.21,72.95c-8.89,2.29-18.66,1.21-27.16-3.81
	C11.55,64.12,5.88,56.1,3.58,47.21c-2.29-8.89-1.21-18.66,3.81-27.16c5.02-8.5,13.04-14.17,21.93-16.47
	c8.89-2.29,18.66-1.21,27.16,3.81c8.5,5.02,14.18,13.04,16.47,21.93c2.29,8.89,1.21,18.66-3.81,27.16
	C64.12,64.99,56.1,70.66,47.21,72.95L47.21,72.95z M23.11,61.23c0,0.25,0.03,0.46,0.1,0.62c0.07,0.16,0.17,0.29,0.3,0.38
	c0.13,0.09,0.29,0.16,0.48,0.19c0.19,0.03,0.4,0.05,0.64,0.05h1.27c0.3,0,0.55-0.01,0.77-0.02c0.21-0.02,0.39-0.06,0.53-0.12
	c0.14-0.07,0.24-0.17,0.31-0.31c0.07-0.14,0.1-0.33,0.1-0.58v-0.98h-2.37v0.71h1.31v0.1c0,0.08-0.02,0.15-0.05,0.2
	c-0.03,0.05-0.07,0.09-0.12,0.11c-0.05,0.03-0.11,0.04-0.18,0.05c-0.07,0.01-0.13,0.01-0.2,0.01h-1.13c-0.13,0-0.24-0.01-0.33-0.03
	c-0.09-0.02-0.15-0.06-0.2-0.11c-0.05-0.05-0.08-0.13-0.1-0.22c-0.02-0.09-0.03-0.21-0.03-0.36V60.5c0-0.15,0.01-0.27,0.03-0.36
	s0.06-0.17,0.1-0.22c0.05-0.05,0.12-0.09,0.2-0.11c0.09-0.02,0.2-0.03,0.33-0.03H26c0.09,0,0.16,0,0.23,0.01
	c0.06,0.01,0.12,0.03,0.17,0.05c0.05,0.03,0.08,0.07,0.1,0.12c0.02,0.05,0.04,0.12,0.04,0.2h1.04v-0.11c0-0.17-0.02-0.32-0.05-0.46
	c-0.03-0.14-0.09-0.25-0.19-0.35c-0.09-0.09-0.23-0.17-0.41-0.22c-0.18-0.05-0.42-0.08-0.72-0.08h-1.59c-0.24,0-0.45,0.02-0.64,0.05
	c-0.19,0.03-0.35,0.1-0.48,0.19c-0.13,0.09-0.23,0.22-0.3,0.38c-0.07,0.16-0.1,0.37-0.1,0.62V61.23L23.11,61.23z M30.74,59.85h1.65
	c0.17,0,0.29,0.02,0.37,0.07c0.08,0.04,0.12,0.14,0.12,0.29v0.11c0,0.12-0.03,0.21-0.09,0.27c-0.06,0.06-0.16,0.09-0.3,0.09h-1.74
	V59.85L30.74,59.85z M29.68,62.43h1.05v-0.89h1.66c0.16,0,0.28,0.03,0.34,0.1c0.06,0.07,0.09,0.19,0.09,0.38v0.41h1.05v-0.58
	c0-0.14-0.02-0.26-0.04-0.35c-0.03-0.09-0.07-0.16-0.12-0.22c-0.05-0.06-0.11-0.1-0.18-0.13c-0.07-0.03-0.14-0.05-0.22-0.06v-0.01
	c0.12-0.03,0.22-0.07,0.3-0.12c0.08-0.05,0.14-0.11,0.18-0.18c0.04-0.07,0.07-0.15,0.09-0.24c0.02-0.09,0.02-0.19,0.02-0.31v-0.22
	c0-0.16-0.02-0.29-0.05-0.42c-0.03-0.12-0.09-0.23-0.16-0.32c-0.08-0.09-0.18-0.16-0.32-0.21c-0.13-0.05-0.3-0.07-0.5-0.07h-3.18
	V62.43L29.68,62.43z M35.99,61.23c0,0.25,0.03,0.46,0.1,0.62c0.07,0.16,0.17,0.29,0.3,0.38c0.13,0.09,0.29,0.16,0.48,0.19
	c0.19,0.03,0.4,0.05,0.64,0.05h1.69c0.24,0,0.45-0.02,0.64-0.05c0.19-0.04,0.35-0.1,0.48-0.19c0.13-0.09,0.23-0.22,0.3-0.38
	c0.07-0.16,0.1-0.37,0.1-0.62V60.2c0-0.25-0.03-0.46-0.1-0.62c-0.07-0.16-0.17-0.29-0.3-0.38c-0.13-0.09-0.29-0.16-0.48-0.19
	c-0.19-0.03-0.4-0.05-0.64-0.05h-1.69c-0.24,0-0.45,0.02-0.64,0.05c-0.19,0.03-0.35,0.1-0.48,0.19c-0.13,0.09-0.23,0.22-0.3,0.38
	c-0.07,0.16-0.1,0.37-0.1,0.62V61.23L35.99,61.23z M37.08,60.53c0-0.11,0.01-0.2,0.03-0.29c0.02-0.08,0.05-0.16,0.1-0.22
	s0.11-0.11,0.2-0.14c0.09-0.03,0.2-0.05,0.34-0.05h1.23c0.14,0,0.25,0.02,0.34,0.05c0.09,0.03,0.15,0.08,0.2,0.14
	c0.05,0.06,0.08,0.13,0.1,0.22c0.02,0.08,0.03,0.18,0.03,0.29v0.37c0,0.12-0.01,0.23-0.02,0.32c-0.02,0.09-0.05,0.16-0.09,0.21
	c-0.04,0.05-0.11,0.09-0.19,0.12c-0.08,0.03-0.18,0.04-0.3,0.04h-1.35c-0.12,0-0.23-0.01-0.3-0.04c-0.08-0.03-0.14-0.06-0.19-0.12
	c-0.04-0.05-0.07-0.12-0.09-0.21c-0.02-0.09-0.02-0.2-0.02-0.32V60.53L37.08,60.53z M42.81,61.21c0,0.43,0.11,0.75,0.34,0.95
	c0.23,0.21,0.58,0.31,1.07,0.31h1.51c0.49,0,0.84-0.1,1.07-0.31c0.23-0.21,0.34-0.52,0.34-0.95v-2.21h-1.05v1.98
	c0,0.22-0.04,0.37-0.13,0.47c-0.09,0.09-0.24,0.14-0.46,0.14h-1.04c-0.22,0-0.37-0.05-0.46-0.14c-0.09-0.09-0.13-0.25-0.13-0.47
	v-1.98h-1.05V61.21L42.81,61.21z M49.31,62.43h1.05v-0.86h2.09c0.19,0,0.34-0.03,0.47-0.1s0.22-0.15,0.3-0.26
	c0.07-0.11,0.13-0.22,0.16-0.35c0.03-0.13,0.05-0.26,0.05-0.39v-0.29c0-0.17-0.02-0.32-0.05-0.47c-0.04-0.14-0.1-0.27-0.19-0.37
	s-0.22-0.19-0.38-0.25c-0.16-0.06-0.37-0.09-0.62-0.09h-2.87V62.43L49.31,62.43z M50.36,59.85h1.55c0.16,0,0.27,0.03,0.34,0.09
	c0.06,0.06,0.1,0.15,0.1,0.27v0.13c0,0.1-0.03,0.19-0.08,0.26c-0.05,0.07-0.14,0.11-0.26,0.11h-1.64V59.85L50.36,59.85z M14.22,50.4
	c0-0.49-0.24-0.74-0.73-0.74h-0.77v2.71h0.77c0.2,0,0.38-0.07,0.52-0.22c0.14-0.14,0.21-0.32,0.21-0.52V50.4L14.22,50.4z
	 M16.82,56.82v-8.47h3.63v1.28h-2.36v2.31h1.72v1.28h-1.72v2.31h2.36v1.28H16.82L16.82,56.82z M22.97,54.87l-0.31,1.95h-1.33
	l1.44-8.46h1.76l1.42,8.46H24.6l-0.3-1.95H22.97L22.97,54.87z M23.64,50.3l-0.47,3.33h0.95L23.64,50.3L23.64,50.3z M28.84,56.93
	c-0.56,0-1.04-0.2-1.43-0.59c-0.4-0.39-0.59-0.87-0.59-1.43v-4.62c0-0.56,0.2-1.04,0.59-1.43c0.39-0.39,0.87-0.59,1.43-0.59
	c0.56,0,1.04,0.2,1.43,0.59c0.39,0.4,0.59,0.87,0.59,1.43v0.97h-1.32v-0.99c0-0.2-0.07-0.38-0.22-0.52
	c-0.14-0.14-0.32-0.22-0.52-0.22c-0.2,0-0.37,0.07-0.52,0.22c-0.14,0.14-0.21,0.32-0.21,0.52v4.63c0,0.2,0.07,0.37,0.21,0.52
	c0.14,0.14,0.31,0.21,0.52,0.21c0.2,0,0.38-0.07,0.52-0.21c0.14-0.14,0.22-0.31,0.22-0.52v-1.17h1.32v1.18
	c0,0.56-0.2,1.04-0.59,1.43C29.87,56.73,29.39,56.93,28.84,56.93L28.84,56.93z M33.1,49.64h-1.36v-1.28h3.98v1.28h-1.35v7.18H33.1
	V49.64L33.1,49.64z M38.02,56.82h-1.27v-8.46h1.27V56.82L38.02,56.82z M40.6,56.82l-1.51-8.46h1.33l1.07,6.63l1.07-6.63h1.33
	l-1.54,8.46H40.6L40.6,56.82z M45.26,54.87l-0.31,1.95h-1.33l1.44-8.46h1.76l1.42,8.46h-1.34l-0.3-1.95H45.26L45.26,54.87z
	 M45.93,50.3l-0.47,3.33h0.95L45.93,50.3L45.93,50.3z M49.47,49.64h-1.36v-1.28h3.98v1.28h-1.35v7.18h-1.27V49.64L49.47,49.64z
	 M54.4,56.82h-1.27v-8.46h1.27V56.82L54.4,56.82z M57.54,48.26c0.56,0,1.04,0.2,1.43,0.59c0.39,0.4,0.59,0.87,0.59,1.43v4.62
	c0,0.56-0.2,1.04-0.59,1.43c-0.39,0.4-0.87,0.59-1.43,0.59c-0.56,0-1.04-0.2-1.43-0.59c-0.39-0.4-0.59-0.87-0.59-1.43v-4.62
	c0-0.56,0.2-1.04,0.59-1.43C56.51,48.45,56.99,48.26,57.54,48.26L57.54,48.26z M58.23,50.26c0-0.2-0.07-0.37-0.21-0.52
	c-0.14-0.14-0.31-0.21-0.52-0.21c-0.2,0-0.38,0.07-0.52,0.21c-0.14,0.14-0.22,0.31-0.22,0.52v4.63c0,0.2,0.07,0.37,0.22,0.52
	c0.14,0.14,0.32,0.21,0.52,0.21c0.2,0,0.37-0.07,0.52-0.21c0.14-0.14,0.21-0.31,0.21-0.52V50.26L58.23,50.26z M62.12,48.35
	l1.69,5.69v-5.69h1.27v8.47h-1.37l-1.76-5.42v5.42h-1.27v-8.47H62.12L62.12,48.35z"/>
</svg>
