<svg version="1.1" id="Layer_1" xmlns="http://www.w3.org/2000/svg" xmlns:xlink="http://www.w3.org/1999/xlink" x="0px" y="0px"
	 viewBox="0 0 591.3 591.3" style="enable-background:new 0 0 591.3 591.3;" xml:space="preserve">
<g>
	<g>
		<path d="M164,511c-1.9,0.3-3.7,0.6-5.6,0.8c-1.9,0.2-3.8,0.3-5.7,0.3c-9.8,0-19.3-1.9-28.1-5.6
			c-8.8-3.7-16.9-9-23.8-16c-6.9-7-12.3-15-16-23.8c-3.6-8.8-5.6-18.3-5.6-28.1c0-1.8,0.1-3.6,0.3-5.3c0.2-1.8,0.5-3.5,0.7-5.2
			c-5.9-0.8-11.7-2.5-17-5.1c-5.3-2.6-10.2-6-14.5-10.3c-0.4-0.4-0.7-0.9-1-1.4c-0.3-0.5-0.5-1-0.9-1.4l-22.4,89.7L2.1,589.2
			l89.5-22.4l89.5-22.4c-0.4-0.4-0.8-0.7-1.2-1c-0.4-0.3-0.8-0.6-1.2-1c-4.4-4.4-7.7-9.4-10-14.7C166.2,522.4,164.8,516.7,164,511z"
			/>
		<path d="M0,591.3l46.2-184.7l1.9,2.3c0.4,0.5,0.7,1.1,1,1.6l0.1,0.1c0.2,0.4,0.4,0.8,0.7,1.1c4.1,4.1,8.9,7.5,14.1,10
			c5.1,2.5,10.7,4.2,16.5,5l1.5,0.2l-0.3,2.1c-0.2,1.5-0.4,3-0.6,4.5c-0.2,2-0.3,3.6-0.3,5.1c0,9.6,1.8,18.8,5.4,27.5
			c3.6,8.7,8.9,16.6,15.6,23.4c6.8,6.8,14.6,12,23.3,15.7c8.7,3.6,18,5.5,27.5,5.5c1.7,0,3.5-0.1,5.5-0.3c1.9-0.2,3.9-0.5,5.6-0.8
			l1.5-0.2l0.2,1.5c0.8,6,2.3,11.4,4.5,16.3c2.4,5.4,5.7,10.2,9.7,14.3c0.3,0.3,0.7,0.6,1.1,0.9l0.1,0.1c0.4,0.3,0.8,0.6,1.2,1
			l2.1,1.9L0,591.3z M47.5,413.5L4.1,587.2l173.6-43.5c-0.1-0.1-0.2-0.1-0.2-0.2c-4.3-4.3-7.8-9.4-10.3-15.2
			c-2.1-4.7-3.6-10-4.5-15.6c-1.3,0.2-2.8,0.4-4.2,0.6c-2.2,0.2-4.1,0.4-5.9,0.4c-10,0-19.6-1.9-28.7-5.7
			c-9.1-3.8-17.2-9.3-24.3-16.3c-7.1-7.1-12.5-15.3-16.3-24.3c-3.8-9.1-5.7-18.7-5.7-28.7c0-1.7,0.1-3.4,0.3-5.5
			c0.1-1.3,0.3-2.6,0.5-3.8c-5.6-0.9-10.9-2.6-15.9-5c-5.5-2.7-10.5-6.3-14.9-10.6C47.6,413.6,47.6,413.6,47.5,413.5z"/>
	</g>
	<g>
		<path d="M126.7,464.6c7.2,7.2,16.6,10.8,26,10.8c9.4,0,18.8-3.6,26-10.8l142.9-142.8l142.9-142.8l-26-26l-26-26
			L269.5,269.8L126.7,412.6c-7.2,7.2-10.8,16.6-10.7,26C115.9,448,119.5,457.4,126.7,464.6z"/>
		<path d="M152.7,476.9C152.7,476.9,152.7,476.9,152.7,476.9c-10.2,0-19.8-4-27.1-11.2l0,0c-7.2-7.2-11.2-16.8-11.2-27
			c0-10.2,4-19.8,11.2-27l286.8-286.8l54.1,54.1l-1.1,1.1L179.7,465.6C172.5,472.9,162.9,476.9,152.7,476.9z M127.7,463.5
			c6.7,6.7,15.5,10.3,24.9,10.3c0,0,0,0,0,0c9.4,0,18.3-3.7,24.9-10.4l284.7-284.6L412.4,129L127.7,413.7
			c-6.7,6.6-10.3,15.5-10.3,24.9C117.4,448,121.1,456.9,127.7,463.5L127.7,463.5z"/>
	</g>
	<g>
		<path d="M100.7,386.7l142.9-142.9L386.5,101l-13-13l-13-13L217.6,217.8L74.7,360.7c-3.6,3.6-5.4,8.3-5.4,13
			c0,4.7,1.8,9.4,5.4,13c3.6,3.6,8.3,5.4,13,5.4S97.1,390.3,100.7,386.7z"/>
		<path d="M87.7,393.5c-5.3,0-10.3-2.1-14-5.8c-3.8-3.8-5.8-8.7-5.8-14c0-5.3,2.1-10.3,5.8-14L360.5,72.9l28.1,28.1
			L101.8,387.7C98,391.5,93,393.5,87.7,393.5z M360.5,77.1L75.8,361.8c-3.2,3.2-4.9,7.4-4.9,11.9c0,4.5,1.8,8.7,4.9,11.9
			c3.2,3.2,7.4,4.9,11.9,4.9s8.7-1.8,11.9-4.9L384.3,101L360.5,77.1z"/>
	</g>
	<g>
		<path d="M204.6,490.6c-3.6,3.6-5.4,8.3-5.4,13c0,4.7,1.8,9.4,5.4,13c3.6,3.6,8.3,5.4,13,5.4c4.7,0,9.4-1.8,13-5.4
			l142.9-142.8l142.9-142.8l-13-13l-13-13L347.5,347.7L204.6,490.6z"/>
		<path d="M217.6,523.4c-5.3,0-10.3-2.1-14-5.8c-3.8-3.8-5.8-8.7-5.8-14c0-5.3,2.1-10.3,5.8-14l0,0l0,0l286.8-286.8
			l28.1,28.1l-1.1,1.1L231.7,517.6C227.9,521.4,222.9,523.4,217.6,523.4z M490.4,207L205.7,491.6c-3.2,3.2-4.9,7.4-4.9,11.9
			c0,4.5,1.8,8.7,4.9,11.9c3.2,3.2,7.4,5,11.9,5c4.5,0,8.7-1.8,11.9-5l284.7-284.6L490.4,207z"/>
	</g>
	<g>
		<path d="M568.3,75l-26-26l-26-26C502,8.7,483.2,1.5,464.4,1.5c-18.8,0-37.6,7.2-52,21.5l-13,13l-13,13l77.9,77.9
			l77.9,77.9l13-13l13-13c14.3-14.3,21.5-33.2,21.5-52C589.8,108.1,582.6,89.3,568.3,75z"/>
		<path d="M542.3,207l-158-158l27-27.1c14.2-14.2,33-22,53-22s38.9,7.8,53,22l51.9,52c14.1,14.2,21.9,33,21.9,53
			c0,20-7.8,38.8-21.9,53L542.3,207z M388.6,49l153.8,153.7l24.9-24.9c13.6-13.6,21.1-31.7,21.1-50.9c0-19.2-7.5-37.3-21.1-50.9
			l-51.9-52C501.7,10.5,483.6,3,464.4,3c-19.2,0-37.3,7.5-50.9,21.1L388.6,49z"/>
	</g>
</g>
</svg>
