<svg version="1.1" id="Layer_1" xmlns="http://www.w3.org/2000/svg" xmlns:xlink="http://www.w3.org/1999/xlink" x="0px" y="0px"
	 viewBox="0 0 320.03 460.03" style="enable-background:new 0 0 320.03 460.03;" xml:space="preserve"
     class="svg-pin">
<style type="text/css">
	.st0{fill:#444444;}
</style>
<path id="_x37_" class="st0" d="M160.02,0C71.78,0,0,71.78,0,160.02c0,41.93,26.1,104.82,77.58,186.93
	c38.01,60.63,76.54,109.91,76.93,110.4c1.33,1.69,3.36,2.68,5.51,2.68c0.01,0,0.01,0,0.02,0c2.16-0.01,4.19-1,5.51-2.71
	c0.38-0.5,38.91-50.27,76.92-111.14c51.47-82.44,77.57-145.08,77.57-186.17C320.03,71.78,248.25,0,160.02,0z M160.02,237.18
	c-42.55,0-77.16-34.62-77.16-77.16s34.62-77.17,77.16-77.17s77.17,34.62,77.17,77.17S202.56,237.18,160.02,237.18z"/>
</svg>
